HIERARCHY
ROOT SpineBase
{
  OFFSET 0.000000 0.000000 0.000000
  CHANNELS 6 Xposition Yposition Zposition Zrotation Xrotation Yrotation
  JOINT SpineMid
  {
    OFFSET -0.000000 31.504275 0.000000
    CHANNELS 3 Zrotation Xrotation Yrotation
    JOINT SpineShoulder
    {
      OFFSET 0.151736 23.449632 -0.676730
      CHANNELS 3 Zrotation Xrotation Yrotation
      JOINT Neck
      {
        OFFSET 0.099817 7.762345 -0.538160
        CHANNELS 3 Zrotation Xrotation Yrotation
        JOINT Head
        {
          OFFSET 4.693463 12.922361 4.746526
          CHANNELS 3 Zrotation Xrotation Yrotation
          End Site
          {
            OFFSET 0 0 0
          }
        }
      }
      JOINT ShoulderLeft
      {
        OFFSET -11.197313 -2.915058 -12.028659
        CHANNELS 3 Zrotation Xrotation Yrotation
        JOINT ElbowLeft
        {
          OFFSET -6.342686 -24.675829 -6.717784
          CHANNELS 3 Zrotation Xrotation Yrotation
          JOINT WristLeft
          {
            OFFSET 1.640622 -23.017203 -6.691876
            CHANNELS 3 Zrotation Xrotation Yrotation
            JOINT HandLeft
            {
              OFFSET 1.337319 -7.937982 0.051042
              CHANNELS 3 Zrotation Xrotation Yrotation
              JOINT HandTipLeft
              {
                OFFSET 1.292244 -7.572501 -0.682378
                CHANNELS 3 Zrotation Xrotation Yrotation
                End Site
                {
                  OFFSET 0 0 0
                }
              }
              JOINT ThumbLeft
              {
                OFFSET 4.439366 0.241666 5.829927
                CHANNELS 3 Zrotation Xrotation Yrotation
                End Site
                {
                  OFFSET 0 0 0
                }
              }
            }
          }
        }
      }
      JOINT ShoulderRight
      {
        OFFSET 11.858033 -3.747274 11.314102
        CHANNELS 3 Zrotation Xrotation Yrotation
        JOINT ElbowRight
        {
          OFFSET 4.037312 -30.007355 6.317682
          CHANNELS 3 Zrotation Xrotation Yrotation
          JOINT WristRight
          {
            OFFSET 6.348617 -18.108167 -15.002315
            CHANNELS 3 Zrotation Xrotation Yrotation
            JOINT HandRight
            {
              OFFSET 2.753083 -0.300843 -3.131830
              CHANNELS 3 Zrotation Xrotation Yrotation
              JOINT HandTipRight
              {
                OFFSET 2.844593 -0.978135 -3.904652
                CHANNELS 3 Zrotation Xrotation Yrotation
                End Site
                {
                  OFFSET 0 0 0
                }
              }
              JOINT ThumbRight
              {
                OFFSET -0.273930 -0.904140 -1.497336
                CHANNELS 3 Zrotation Xrotation Yrotation
                End Site
                {
                  OFFSET 0 0 0
                }
              }
            }
          }
        }
      }
    }
  }
  JOINT HipLeft
  {
    OFFSET -4.748556 1.366520 -7.935260
    CHANNELS 3 Zrotation Xrotation Yrotation
    JOINT KneeLeft
    {
      OFFSET -8.876168 -35.592279 -3.506605
      CHANNELS 3 Zrotation Xrotation Yrotation
      JOINT AnkleLeft
      {
        OFFSET -7.021598 -38.962843 6.352559
        CHANNELS 3 Zrotation Xrotation Yrotation
        JOINT FootLeft
        {
          OFFSET 2.557014 -7.581020 -3.906923
          CHANNELS 3 Zrotation Xrotation Yrotation
          End Site
          {
            OFFSET 0 0 0
          }
        }
      }
    }
  }
  JOINT HipRight
  {
    OFFSET 5.653136 0.207119 0.880320
    CHANNELS 3 Zrotation Xrotation Yrotation
    JOINT KneeRight
    {
      OFFSET -4.044577 -38.699180 2.860769
      CHANNELS 3 Zrotation Xrotation Yrotation
      JOINT AnkleRight
      {
        OFFSET -8.313691 -37.395646 9.131494
        CHANNELS 3 Zrotation Xrotation Yrotation
        JOINT FootRight
        {
          OFFSET 2.883053 -7.291831 -5.213905
          CHANNELS 3 Zrotation Xrotation Yrotation
          End Site
          {
            OFFSET 0 0 0
          }
        }
      }
    }
  }
}
MOTION
Frames: 15
Frame Time: 0.033333
-60.798569 66.390034 348.097153 -44.751058 -26.366166 -12.825587 1.419399 -1.046057 0.022554 0.927335 -0.310265 -1.759448 -34.437969 -10.283144 47.967554 0.000000 0.000000 0.000000 0.578820 16.596318 21.016993 27.620652 -19.819460 -16.746126 -5.555162 6.190207 -1.216770 -1.308716 21.028453 6.893246 0.000000 0.000000 0.000000 0.000000 0.000000 0.000000 10.835346 49.276304 8.428539 78.936176 20.124177 -23.832966 -122.341184 -47.958267 -113.489964 6.517413 63.275474 37.395392 0.000000 0.000000 0.000000 0.000000 0.000000 0.000000 107.773428 34.322325 -58.980780 -54.640483 -41.734285 -8.678806 -3.302169 3.984636 6.688379 0.000000 0.000000 0.000000 65.340406 18.241256 -15.872810 -13.472626 11.448810 -1.916313 0.618646 27.269268 4.639196 0.000000 0.000000 0.000000
-60.983445 66.502720 347.631160 -45.508678 -26.125079 -13.705258 1.645838 -0.689875 0.839562 0.845935 -0.125441 -1.703477 -33.635294 -11.007775 47.169704 0.000000 0.000000 0.000000 0.580572 16.888021 21.111954 28.641228 -20.601384 -16.430822 -6.320171 2.210095 -1.923718 0.207486 25.834399 7.372113 0.000000 0.000000 0.000000 0.000000 0.000000 0.000000 15.392565 48.918670 6.295029 64.448409 10.906672 -15.541303 -35.228282 -40.468076 -56.791097 -7.858335 19.937109 47.066734 0.000000 0.000000 0.000000 0.000000 0.000000 0.000000 104.860858 35.337928 -55.944950 -54.632457 -42.416429 -8.961712 4.545091 9.459264 3.477134 0.000000 0.000000 0.000000 66.265900 18.029562 -15.472917 -0.958748 6.424518 1.602398 -23.651533 26.516880 8.226374 0.000000 0.000000 0.000000
-61.077659 66.299157 347.578408 -45.655133 -25.977731 -17.930793 1.838692 -0.056967 5.216427 0.576829 -0.045836 -1.621551 -33.351850 -12.382821 46.414275 0.000000 0.000000 0.000000 -0.613248 18.494387 21.790662 30.069731 -23.931446 -15.744869 -9.119227 -0.821743 -1.909187 6.814176 27.492757 4.716830 0.000000 0.000000 0.000000 0.000000 0.000000 0.000000 27.698564 49.983122 0.749449 47.449134 2.736007 -10.977655 -21.520300 -26.928401 -33.632284 -2.931602 -1.716580 34.516411 0.000000 0.000000 0.000000 0.000000 0.000000 0.000000 105.174129 38.666187 -56.196956 -57.565978 -43.340697 -10.457098 4.404062 9.211714 3.675406 0.000000 0.000000 0.000000 69.726177 20.934800 -14.936045 -4.971734 2.942719 2.917038 -32.021824 29.795922 16.012369 0.000000 0.000000 0.000000
-61.034643 66.099924 348.215176 -45.071967 -26.368378 -16.134133 1.407471 0.069843 3.604598 1.046841 0.095724 -1.656247 -35.253139 -13.325450 47.007394 0.000000 0.000000 0.000000 -1.805269 18.490007 22.224130 30.526256 -24.432964 -15.805133 -9.003808 0.362654 -1.563412 7.488045 26.769489 4.221779 0.000000 0.000000 0.000000 0.000000 0.000000 0.000000 29.848752 47.219887 -1.156429 41.899381 3.119871 -10.949093 -23.791749 -27.687800 -35.717137 -0.214561 -6.930769 33.483465 0.000000 0.000000 0.000000 0.000000 0.000000 0.000000 105.946695 39.005578 -58.508999 -58.076451 -46.032454 -12.088272 4.121240 3.494689 1.593936 0.000000 0.000000 0.000000 72.149678 19.170274 -16.694700 -13.821084 5.293322 0.798703 -32.812001 31.698088 25.030806 0.000000 0.000000 0.000000
-61.021742 66.892191 348.652640 -46.154960 -26.391397 -14.740976 2.032621 0.328851 1.817109 1.128314 0.685872 -1.482677 -34.099216 -14.631293 45.857181 0.000000 0.000000 0.000000 -1.726633 18.023421 22.092181 29.188749 -24.303737 -15.573333 -6.382042 0.433102 -2.651588 0.219800 24.876895 7.303307 0.000000 0.000000 0.000000 0.000000 0.000000 0.000000 23.582318 51.034386 3.303974 47.013633 -7.009426 -8.240207 -28.138697 -24.166484 -21.891183 -0.180913 -14.610471 15.401638 0.000000 0.000000 0.000000 0.000000 0.000000 0.000000 107.248131 38.194762 -59.339694 -54.994980 -45.761837 -10.624955 6.350624 6.249414 1.037294 0.000000 0.000000 0.000000 76.706078 16.926477 -18.636519 -24.638459 9.318279 -1.795527 -24.980571 44.704485 31.899712 0.000000 0.000000 0.000000
-61.469881 68.755494 348.973242 -47.755630 -26.557010 -11.731359 2.473002 0.586887 -1.714513 1.236865 1.022697 -1.423972 -31.644545 -15.748959 44.667126 0.000000 0.000000 0.000000 -2.456906 19.340756 22.899298 30.582741 -26.910705 -15.138944 -7.963678 0.355157 -2.186245 2.465173 23.187771 6.073678 0.000000 0.000000 0.000000 0.000000 0.000000 0.000000 11.213580 52.853473 11.052561 60.473545 -10.425596 -6.472708 -34.047674 -25.458461 -6.450982 -2.044462 -14.131831 -10.981836 0.000000 0.000000 0.000000 0.000000 0.000000 0.000000 105.426663 35.848702 -56.876077 -49.680123 -44.595767 -7.844511 7.650554 7.367741 -0.098093 0.000000 0.000000 0.000000 82.117120 12.429653 -20.803318 -30.864129 10.612010 -2.687300 -13.107076 54.700121 27.226852 0.000000 0.000000 0.000000
-62.093757 70.978244 349.078799 -49.007249 -26.507007 -10.511962 2.358019 0.632821 -3.219208 1.277738 1.281437 -1.384139 -27.468114 -15.382429 42.967195 0.000000 0.000000 0.000000 -0.966966 18.881903 22.472193 29.332255 -26.159429 -15.162125 -7.239522 2.029019 -2.243535 -0.349141 18.470843 6.473149 0.000000 0.000000 0.000000 0.000000 0.000000 0.000000 -8.928149 51.868367 22.916201 83.647978 0.794490 -7.933287 -43.887011 -37.386649 -10.125376 0.759644 -10.951804 -16.953922 0.000000 0.000000 0.000000 0.000000 0.000000 0.000000 102.437436 33.106099 -52.627097 -46.207482 -39.582637 -5.417298 8.790067 7.301871 -0.454709 0.000000 0.000000 0.000000 86.964721 9.597557 -21.839282 -36.085800 11.650077 -3.363256 3.947678 55.702199 14.237642 0.000000 0.000000 0.000000
-62.862985 73.502180 348.957671 -50.214663 -26.274453 -8.641768 2.149853 0.550308 -5.294215 1.260145 1.493207 -1.346694 -22.438861 -14.070195 40.910966 0.000000 0.000000 0.000000 1.202647 17.403820 21.673935 27.384639 -23.968467 -15.420619 -5.304748 5.881481 -2.105240 -4.609622 12.225542 6.465221 0.000000 0.000000 0.000000 0.000000 0.000000 0.000000 -19.842472 44.692678 24.814353 105.091609 12.653691 -19.253152 -53.431314 -46.562365 -5.592276 3.179036 -6.258451 -21.977941 0.000000 0.000000 0.000000 0.000000 0.000000 0.000000 97.928441 30.100917 -47.458017 -39.843684 -33.860655 -1.963328 7.339685 4.589260 -1.073179 0.000000 0.000000 0.000000 90.033411 6.228703 -21.955115 -39.228972 12.930054 -3.751254 11.688785 48.689779 7.582314 0.000000 0.000000 0.000000
-63.282016 75.644411 348.624558 -50.342522 -25.875345 -6.372121 1.307168 0.294453 -7.311268 1.397323 1.818708 -1.282554 -17.674874 -12.551315 38.620196 0.000000 0.000000 0.000000 3.690955 14.683683 20.412424 24.411566 -20.064939 -15.585204 -2.562293 10.921547 -2.001145 -10.802832 5.947698 6.101090 0.000000 0.000000 0.000000 0.000000 0.000000 0.000000 -19.616773 36.635429 18.444572 116.089535 20.148639 -32.653118 -50.777243 -44.380817 -2.448155 4.383900 -6.485407 -23.131096 0.000000 0.000000 0.000000 0.000000 0.000000 0.000000 92.754084 27.537369 -42.957465 -33.108551 -28.812540 0.880290 4.869237 8.288405 0.481787 0.000000 0.000000 0.000000 90.777365 2.443048 -20.993672 -40.058905 13.962809 -3.403381 7.246909 33.013305 7.454981 0.000000 0.000000 0.000000
-63.371366 77.037704 348.128541 -49.413344 -25.291696 -3.943520 0.044446 0.014578 -9.062321 1.593788 2.051124 -1.246176 -13.685068 -10.979477 36.390927 0.000000 0.000000 0.000000 5.622058 13.712940 19.258601 21.999469 -17.708406 -14.820258 -1.359530 12.137265 -2.270680 -11.023343 1.827260 4.430797 0.000000 0.000000 0.000000 0.000000 0.000000 0.000000 -10.589735 27.231742 7.630910 112.458377 20.532843 -42.630430 -57.254127 -50.416870 -5.309111 12.451130 5.582142 -25.424903 0.000000 0.000000 0.000000 0.000000 0.000000 0.000000 88.602347 24.190029 -39.510393 -30.032589 -23.590045 1.888228 2.451570 7.056848 1.444301 0.000000 0.000000 0.000000 91.048927 -1.144089 -19.714071 -41.899224 15.010176 -3.092180 9.449514 27.467789 4.655487 0.000000 0.000000 0.000000
-63.317149 77.862626 347.536477 -48.208100 -24.663660 -3.747761 -0.991633 -0.207142 -8.540365 1.716845 2.157140 -1.227701 -10.931067 -9.893492 34.621713 0.000000 0.000000 0.000000 7.227765 13.439060 18.147314 20.115206 -16.547968 -14.000268 -0.471758 14.763465 -1.846800 -11.440370 -4.301306 1.698613 0.000000 0.000000 0.000000 0.000000 0.000000 0.000000 1.049055 19.258646 -0.411993 95.538649 20.778246 -43.292106 -56.240481 -49.211968 -10.291456 20.040257 17.692458 -23.842349 0.000000 0.000000 0.000000 0.000000 0.000000 0.000000 84.360059 23.344040 -36.384566 -26.465107 -18.873036 2.806691 -0.932704 8.089676 3.172036 0.000000 0.000000 0.000000 87.692431 -0.548860 -18.819526 -39.801241 15.551446 -2.946408 6.506122 9.262305 2.422493 0.000000 0.000000 0.000000
-62.956183 77.887849 346.897878 -46.595482 -24.054376 -6.331273 -1.835973 -0.172839 -5.034621 1.730278 2.220492 -1.185593 -9.700953 -9.861348 33.264669 0.000000 0.000000 0.000000 8.711210 13.115164 16.875048 18.695090 -15.511536 -13.064127 -1.188178 14.720202 -1.528702 -6.879379 -9.181371 -0.805836 0.000000 0.000000 0.000000 0.000000 0.000000 0.000000 9.539960 12.442186 -4.932915 72.219406 21.787838 -34.387575 -45.839265 -38.870019 -9.780404 19.983948 19.589416 -20.772929 0.000000 0.000000 0.000000 0.000000 0.000000 0.000000 81.055665 25.672380 -33.894118 -24.824036 -17.412191 3.326532 -3.684778 11.830618 5.196666 0.000000 0.000000 0.000000 85.237918 2.924609 -17.843077 -39.134409 15.269759 -2.852178 5.716267 1.806322 0.935413 0.000000 0.000000 0.000000
-62.051185 76.673175 346.687349 -43.643051 -23.630212 -8.340046 -2.643523 -0.170357 -1.843021 1.533917 1.899296 -1.214716 -11.169764 -10.148196 33.055375 0.000000 0.000000 0.000000 8.591776 12.739464 16.138330 18.146829 -14.920488 -12.625116 -3.440585 17.998199 0.353221 -3.882756 -17.467528 -4.199394 0.000000 0.000000 0.000000 0.000000 0.000000 0.000000 19.437973 9.288976 -6.774497 44.446741 20.611679 -20.097847 -35.468523 -27.531186 -14.444891 16.748437 18.607403 -11.976365 0.000000 0.000000 0.000000 0.000000 0.000000 0.000000 78.508337 29.241474 -33.168481 -25.028940 -19.002185 3.488716 -6.840580 18.828781 9.231399 0.000000 0.000000 0.000000 81.033397 7.181091 -16.911449 -37.469748 14.050517 -2.894501 3.870261 -1.379406 0.887009 0.000000 0.000000 0.000000
-61.916979 76.151493 346.361887 -42.928804 -22.833911 -12.357359 -1.966546 -0.652111 2.407587 2.011832 1.563375 -1.383026 -14.530782 -10.215234 33.932628 0.000000 0.000000 0.000000 7.981019 12.595276 15.735569 18.678415 -14.338402 -12.516275 -5.536629 23.104538 2.915623 -1.773481 -26.384307 -7.354344 0.000000 0.000000 0.000000 0.000000 0.000000 0.000000 20.606429 7.192511 -7.290599 29.185453 17.441570 -9.347690 -31.915981 -25.074150 -9.561675 14.431070 13.335741 -15.461314 0.000000 0.000000 0.000000 0.000000 0.000000 0.000000 77.163980 33.300925 -31.270981 -24.861806 -19.383278 3.679647 -4.613046 19.514888 7.646615 0.000000 0.000000 0.000000 79.463455 12.893897 -15.785906 -36.479546 11.707118 -2.996768 -0.557278 -8.317150 0.751445 0.000000 0.000000 0.000000
-62.358750 76.227213 345.811301 -44.332789 -21.629146 -13.378443 -0.292714 -0.804295 3.128192 2.011374 1.642286 -1.340879 -14.748880 -11.066975 33.455781 0.000000 0.000000 0.000000 7.766174 12.249379 15.623426 19.548300 -14.326665 -12.389021 -6.735118 23.036104 3.458226 -1.826517 -31.861676 -9.441335 0.000000 0.000000 0.000000 0.000000 0.000000 0.000000 17.378292 11.540762 -5.415300 27.102646 2.596430 -5.791228 -31.751060 -22.920270 -2.999706 7.218885 4.795738 -13.600714 0.000000 0.000000 0.000000 0.000000 0.000000 0.000000 78.470147 33.211739 -30.218383 -24.877799 -19.387912 3.907952 -3.092136 20.484011 6.491991 0.000000 0.000000 0.000000 80.618195 13.983514 -15.095006 -35.707019 9.537212 -2.758928 0.342381 -8.962461 -1.367823 0.000000 0.000000 0.000000
